<?xml version="1.0" encoding="UTF-8" standalone="no"?>
<svg width="570px" height="570px" viewBox="0 0 570 570" version="1.1" xmlns="http://www.w3.org/2000/svg" xmlns:xlink="http://www.w3.org/1999/xlink">
    <!-- Generator: Sketch 3.8.3 (29802) - http://www.bohemiancoding.com/sketch -->
    <title>Group</title>
    <desc>Created with Sketch.</desc>
    <defs></defs>
    <g id="Page-1" stroke="none" stroke-width="1" fill="none" fill-rule="evenodd">
        <g id="Group" fill="#D8D8D8">
            <g id="facebook-letter-logo" transform="translate(193.000000, 88.000000)">
                <g id="Capa_1">
                    <path d="M40.3712129,76.3422274 L40.3712129,130.613944 L0.637425743,130.613944 L0.637425743,196.97761 L40.3712129,196.97761 L40.3712129,394.187088 L121.992847,394.187088 L121.992847,196.983109 L176.764752,196.983109 C176.764752,196.983109 181.894381,165.162239 184.380891,130.369246 L122.301485,130.369246 L122.301485,84.9937355 C122.301485,78.2118329 131.200718,69.0892575 139.99646,69.0892575 L184.46698,69.0892575 L184.46698,0.000916473318 L124.002203,0.000916473318 C38.3536139,-0.00366589327 40.3712129,66.4259861 40.3712129,76.3422274 L40.3712129,76.3422274 Z" id="Facebook"></path>
                </g>
            </g>
            <path d="M285,570 C442.401154,570 570,442.401154 570,285 C570,127.598846 442.401154,0 285,0 C127.598846,0 0,127.598846 0,285 C0,442.401154 127.598846,570 285,570 Z M285,535 C423.071187,535 535,423.071187 535,285 C535,146.928813 423.071187,35 285,35 C146.928813,35 35,146.928813 35,285 C35,423.071187 146.928813,535 285,535 Z" id="Combined-Shape"></path>
        </g>
    </g>
</svg>