<?xml version="1.0" encoding="UTF-8" standalone="no"?>
<svg width="570px" height="570px" viewBox="0 0 570 570" version="1.1" xmlns="http://www.w3.org/2000/svg" xmlns:xlink="http://www.w3.org/1999/xlink">
    <!-- Generator: Sketch 3.8.3 (29802) - http://www.bohemiancoding.com/sketch -->
    <title>Instagram</title>
    <desc>Created with Sketch.</desc>
    <defs></defs>
    <g id="Page-1" stroke="none" stroke-width="1" fill="none" fill-rule="evenodd">
        <g id="Instagram" fill="#D8D8D8">
            <path d="M285,570 C442.401154,570 570,442.401154 570,285 C570,127.598846 442.401154,0 285,0 C127.598846,0 0,127.598846 0,285 C0,442.401154 127.598846,570 285,570 Z M285,535 C423.071187,535 535,423.071187 535,285 C535,146.928813 423.071187,35 285,35 C146.928813,35 35,146.928813 35,285 C35,423.071187 146.928813,535 285,535 Z" id="Combined-Shape"></path>
            <g id="instagram" transform="translate(113.000000, 113.000000)">
                <g id="Group">
                    <path d="M172,94.7755102 C129.418416,94.7755102 94.7755102,129.418416 94.7755102,172 C94.7755102,214.581584 129.418416,249.22449 172,249.22449 C214.581584,249.22449 249.22449,214.581584 249.22449,172 C249.22449,129.418416 214.581584,94.7755102 172,94.7755102 L172,94.7755102 Z M172,235.183673 C137.160522,235.183673 108.816327,206.839478 108.816327,172 C108.816327,137.160522 137.160522,108.816327 172,108.816327 C206.839478,108.816327 235.183673,137.160522 235.183673,172 C235.183673,206.839478 206.839478,235.183673 172,235.183673 L172,235.183673 Z" id="Shape"></path>
                    <path d="M249.22449,63.1836735 C235.675804,63.1836735 224.653061,74.2064163 224.653061,87.755102 C224.653061,101.303788 235.675804,112.326531 249.22449,112.326531 C262.773176,112.326531 273.795918,101.303788 273.795918,87.755102 C273.795918,74.2064163 262.773176,63.1836735 249.22449,63.1836735 L249.22449,63.1836735 Z M249.22449,98.2857143 C243.417208,98.2857143 238.693878,93.5616816 238.693878,87.755102 C238.693878,81.9485224 243.417208,77.2244898 249.22449,77.2244898 C255.031771,77.2244898 259.755102,81.9485224 259.755102,87.755102 C259.755102,93.5616816 255.031771,98.2857143 249.22449,98.2857143 L249.22449,98.2857143 Z" id="Shape"></path>
                    <path d="M172,122.857143 C144.902629,122.857143 122.857143,144.902629 122.857143,172 C122.857143,199.097371 144.902629,221.142857 172,221.142857 C199.097371,221.142857 221.142857,199.097371 221.142857,172 C221.142857,144.902629 199.097371,122.857143 172,122.857143 L172,122.857143 Z M172,207.102041 C152.644735,207.102041 136.897959,191.355265 136.897959,172 C136.897959,152.644735 152.644735,136.897959 172,136.897959 C191.355265,136.897959 207.102041,152.644735 207.102041,172 C207.102041,191.355265 191.355265,207.102041 172,207.102041 L172,207.102041 Z" id="Shape"></path>
                    <path d="M238.693878,31.5918367 L105.306122,31.5918367 C66.5955918,31.5918367 35.1020408,63.0853878 35.1020408,101.795918 L35.1020408,238.693878 C35.1020408,277.404408 66.5955918,308.897959 105.306122,308.897959 L238.693878,308.897959 C277.40511,308.897959 308.897959,277.404408 308.897959,238.693878 L308.897959,101.795918 C308.897959,63.0853878 277.40511,31.5918367 238.693878,31.5918367 L238.693878,31.5918367 Z M294.857143,238.693878 C294.857143,269.662302 269.662302,294.857143 238.693878,294.857143 L105.306122,294.857143 C74.337698,294.857143 49.1428571,269.662302 49.1428571,238.693878 L49.1428571,101.795918 C49.1428571,70.8274939 74.337698,45.6326531 105.306122,45.6326531 L238.693878,45.6326531 C269.662302,45.6326531 294.857143,70.8274939 294.857143,101.795918 L294.857143,238.693878 L294.857143,238.693878 Z" id="Shape"></path>
                    <path d="M273.795918,0 L70.2040816,0 C31.493551,0 0,31.493551 0,70.2040816 L0,273.795918 C0,312.506449 31.493551,344 70.2040816,344 L273.795918,344 C312.507151,344 344,312.506449 344,273.795918 L344,70.2040816 C344,31.493551 312.507151,0 273.795918,0 L273.795918,0 Z M329.959184,273.795918 C329.959184,304.764343 304.764343,329.959184 273.795918,329.959184 L70.2040816,329.959184 C39.2356571,329.959184 14.0408163,304.764343 14.0408163,273.795918 L14.0408163,70.2040816 C14.0408163,39.2356571 39.2356571,14.0408163 70.2040816,14.0408163 L273.795918,14.0408163 C304.764343,14.0408163 329.959184,39.2356571 329.959184,70.2040816 L329.959184,273.795918 L329.959184,273.795918 Z" id="Shape"></path>
                </g>
            </g>
        </g>
    </g>
</svg>