<?xml version="1.0" encoding="UTF-8" standalone="no"?>
<svg width="570px" height="570px" viewBox="0 0 570 570" version="1.1" xmlns="http://www.w3.org/2000/svg" xmlns:xlink="http://www.w3.org/1999/xlink">
    <!-- Generator: Sketch 3.8.3 (29802) - http://www.bohemiancoding.com/sketch -->
    <title>Pinterest</title>
    <desc>Created with Sketch.</desc>
    <defs></defs>
    <g id="Page-1" stroke="none" stroke-width="1" fill="none" fill-rule="evenodd">
        <g id="Pinterest" fill="#D8D8D8">
            <path d="M285,570 C442.401154,570 570,442.401154 570,285 C570,127.598846 442.401154,0 285,0 C127.598846,0 0,127.598846 0,285 C0,442.401154 127.598846,570 285,570 Z M285,535 C423.071187,535 535,423.071187 535,285 C535,146.928813 423.071187,35 285,35 C146.928813,35 35,146.928813 35,285 C35,423.071187 146.928813,535 285,535 Z" id="Combined-Shape"></path>
            <g id="pinterest-letter-logo" transform="translate(107.000000, 107.000000)">
                <path d="M88.3540066,15.6768002 C42.559505,33.8130345 11.4471532,68.761207 2.75572449,115.840759 C-2.57864921,144.768351 -0.550842297,176.296529 12.2094431,203.298097 C15.0549942,209.301297 18.4675035,215.080193 22.5247727,220.426211 C24.4913316,223.030108 26.6043892,225.524751 28.8904311,227.889447 C32.955977,226.440998 36.8849564,224.632506 40.6260532,222.511977 C56.1044276,213.774106 67.5263604,200.312637 80.7824239,188.998183 C36.4736013,137.658536 83.4326434,74.0468036 142.17614,59.8611099 C196.860713,46.6769152 270.98078,69.4349426 287.567413,125.701798 C294.428022,149.008581 289.935395,174.767794 270.933603,191.640981 C260.990728,200.471553 248.382735,206.312526 235.044731,208.687982 C227.257125,210.071044 219.261772,210.287897 211.388915,209.510701 C207.003886,209.074511 202.639549,208.328767 198.348047,207.320646 C191.07029,205.605683 184.596206,205.86061 184.596206,198.014984 L184.596206,136.489845 L184.596206,105.731414 C184.596206,99.4426632 185.21448,100.624597 179.999292,99.9756924 C175.881602,99.4741152 171.774672,99.0702049 167.646223,98.7457524 C153.137058,97.6101686 137.971545,96.8321446 123.579082,99.311889 C118.19422,100.237241 117.854045,99.3756207 117.854045,105.214111 L117.854045,119.387389 L117.854045,153.875369 C117.854045,188.235885 120.442189,223.001967 119.020241,257.299579 C118.608886,267.521489 118.324993,292.054073 106.885679,297.11785 C93.6263046,302.981999 81.9064083,290.582449 69.6708697,287.997589 C71.3493972,305.218403 60.5780179,339.334753 80.6533064,348.026273 C99.0575164,355.999363 120.23527,358.965786 139.640968,352.383207 C180.293117,338.597285 193.438272,293.351056 188.289297,256.178893 C251.044542,274.925132 318.783225,243.55918 345.622284,186.886758 C364.731674,146.537113 356.662658,96.4125083 327.891802,62.0999979 C274.00511,-2.18298725 164.617755,-14.5113557 88.3540066,15.6768002 L88.3540066,15.6768002 Z" id="Path"></path>
            </g>
        </g>
    </g>
</svg>