<?xml version="1.0" encoding="UTF-8" standalone="no"?>
<svg width="570px" height="570px" viewBox="0 0 570 570" version="1.1" xmlns="http://www.w3.org/2000/svg" xmlns:xlink="http://www.w3.org/1999/xlink">
    <!-- Generator: Sketch 3.8.3 (29802) - http://www.bohemiancoding.com/sketch -->
    <title>Twitter</title>
    <desc>Created with Sketch.</desc>
    <defs></defs>
    <g id="Page-1" stroke="none" stroke-width="1" fill="none" fill-rule="evenodd">
        <g id="Twitter" fill="#D8D8D8">
            <path d="M285,570 C442.401154,570 570,442.401154 570,285 C570,127.598846 442.401154,0 285,0 C127.598846,0 0,127.598846 0,285 C0,442.401154 127.598846,570 285,570 Z M285,535 C423.071187,535 535,423.071187 535,285 C535,146.928813 423.071187,35 285,35 C146.928813,35 35,146.928813 35,285 C35,423.071187 146.928813,535 285,535 Z" id="Combined-Shape"></path>
            <g id="twitter-logo-silhouette" transform="translate(103.000000, 138.000000)">
                <path d="M366,35.1397734 C352.529145,41.1028466 338.075111,45.1469346 322.888479,46.9524058 C338.395063,37.6759166 350.264964,22.9621036 355.890729,5.48332693 C341.345195,14.0739521 325.28961,20.3118489 308.182072,23.6933732 C294.482765,9.09367174 274.996822,0 253.383649,0 C211.919131,0 178.299105,33.586423 178.299105,74.9867959 C178.299105,80.8584604 178.962332,86.5933107 180.243334,92.077235 C117.852193,88.9466365 62.5280924,59.0846699 25.5004338,13.7083173 C19.0278448,24.7669773 15.3457113,37.6526164 15.3457113,51.4075342 C15.3457113,77.4315305 28.6108409,100.393634 48.7372855,113.827725 C36.4326086,113.416685 24.8599328,110.035161 14.7285339,104.414422 L14.7285339,105.351212 C14.7285339,141.679298 40.6182919,171.998308 74.946995,178.898769 C68.6574063,180.589531 62.0251406,181.526321 55.1638254,181.526321 C50.3155136,181.526321 45.6268785,181.046574 41.0297435,180.132487 C50.589416,209.949048 78.309177,231.63143 111.15175,232.225886 C85.4677181,252.332214 53.0826456,264.281661 17.9077155,264.281661 C11.8471762,264.281661 5.87753902,263.916026 0,263.253462 C33.2312994,284.570807 72.6834129,297 115.085659,297 C253.201845,297 328.698439,182.714634 328.698439,83.6007214 L328.446664,73.890489 C343.197924,63.3796837 355.959503,50.1738155 366,35.1397734 L366,35.1397734 Z" id="Shape"></path>
            </g>
        </g>
    </g>
</svg>