<?xml version="1.0" standalone="no"?>
<!DOCTYPE svg PUBLIC "-//W3C//DTD SVG 20010904//EN"
 "http://www.w3.org/TR/2001/REC-SVG-20010904/DTD/svg10.dtd">
<svg version="1.0" xmlns="http://www.w3.org/2000/svg"
 width="70.000000pt" height="70.000000pt" viewBox="0 0 70.000000 70.000000"
 preserveAspectRatio="xMidYMid meet">
<metadata>
Created by potrace 1.11, written by Peter Selinger 2001-2013
</metadata>
<g transform="translate(0.000000,70.000000) scale(0.100000,-0.100000)"
fill="#000000" stroke="none">
<path d="M253 685 c-24 -7 -66 -28 -94 -45 -51 -33 -119 -111 -119 -136 0 -8
-4 -14 -9 -14 -23 0 -36 -167 -17 -227 28 -91 94 -177 157 -205 16 -7 29 -17
29 -22 0 -4 7 -6 15 -2 8 3 15 1 15 -4 0 -5 21 -12 48 -16 83 -13 141 -6 207
24 125 59 196 165 203 305 4 78 0 93 -46 185 -47 92 -164 163 -277 168 -38 1
-89 -3 -112 -11z m15 -200 c15 -10 39 -31 53 -47 25 -29 27 -29 40 -12 52 68
119 93 169 63 68 -42 61 -113 -18 -194 -101 -103 -141 -135 -168 -135 -20 0
-49 22 -116 88 -111 107 -131 148 -101 201 32 55 88 69 141 36z"/>
<path d="M182 467 c-31 -14 -44 -58 -26 -93 15 -27 112 -131 117 -123 1 2 13
16 26 32 l25 27 -54 55 c-65 65 -85 55 -23 -12 30 -33 39 -49 30 -55 -14 -9
-107 79 -107 102 0 22 12 36 37 44 17 5 33 -5 80 -53 l60 -60 58 60 c32 32 64
59 71 59 7 0 22 -10 34 -22 15 -16 17 -24 8 -30 -7 -4 -10 -8 -6 -8 9 0 -24
-41 -61 -76 -24 -22 -41 -23 -41 -4 0 6 18 27 40 47 42 39 49 53 28 53 -17 -1
-48 -28 -80 -70 l-26 -35 25 -29 25 -30 64 67 c68 71 78 99 47 135 -36 42 -81
31 -143 -34 l-43 -45 -48 49 c-50 52 -81 65 -117 49z"/>
<path d="M328 270 c-24 -27 -23 -67 1 -75 48 -15 72 31 38 71 l-22 25 -17 -21z"/>
</g>
</svg>
