<?xml version="1.0" encoding="utf-8"?>
<!-- Generator: Adobe Illustrator 16.0.0, SVG Export Plug-In . SVG Version: 6.00 Build 0)  -->
<!DOCTYPE svg PUBLIC "-//W3C//DTD SVG 1.1//EN" "http://www.w3.org/Graphics/SVG/1.1/DTD/svg11.dtd">
<svg version="1.1" id="Layer_1" xmlns="http://www.w3.org/2000/svg" xmlns:xlink="http://www.w3.org/1999/xlink" x="0px" y="0px"
	 width="839.384px" height="255.673px" viewBox="0 265.5 839.384 255.673" enable-background="new 0 265.5 839.384 255.673"
	 xml:space="preserve">
<path fill="#2C2A49" d="M317.926,349.797c-5.022,0-9.167,3.977-9.167,9.35v68.006c0,4.5,3.28,7.952,7.396,9.002
	c0.488,0,1.047,0.179,1.746,0.179c3.628,0,7.046-2.442,8.649-5.581v-0.907c0.352-0.348,0.352-0.698,0.489-1.046v-0.56
	c0-0.348,0.14-0.905,0.14-1.255v-41.026c0-9.838,7.954-17.792,17.442-17.792c9.699,0,17.654,7.745,17.792,17.304v41.514
	c0,5.024,4.467,9.14,9.35,9.14c5.023,0,9.138-4.186,9.138-9.21v-41.514c0.353-9.558,8.165-17.303,18.003-17.303
	c9.488,0,17.512,7.954,17.512,17.792v40.955c0,5.025,4.327,9.141,9.351,9.141s9.142-4.115,9.142-9.141V385.89
	c0-20.052-16.118-36.351-36.004-36.351c-10.953,0-20.792,4.521-27.21,11.931c-6.559-7.41-16.257-11.931-27.211-11.931
	c-6.56,0-12.978,1.925-18.49,5.212c-1.395-3.279-4.675-5.191-8.303-5.191l0.071,0.14v0.049l0.14,0.049H317.926z M497.428,349.797
	c-11.765,0-21.979,5.023-29.423,12.977c-7.438,7.793-11.756,18.524-11.756,30.469c0,11.766,4.326,22.502,11.756,30.462
	c7.444,7.745,17.652,12.629,29.423,12.629c8.65,0,16.438-2.79,23.024-7.465c1.031,4.116,4.499,7.396,9.001,7.396
	c5.023,0,9.168-4.186,9.168-9.211v-67.956c0-5.232-4.151-9.349-9.168-9.349c-4.502,0-7.97,3.279-9.001,7.605
	c-6.586-4.674-14.374-7.605-23.024-7.605v0.055V349.797z M698.858,349.797c-23.702,0-42.038,19.731-42.213,43.258
	c0.175,23.548,18.511,43.1,42.213,43.286c12.293,0,22.513-3.628,30.991-11.388c3.978-3.628,2.253-8.859,0-11.303
	c-2.246-2.775-9.35-3.28-12.977,0.51c-4.327,3.28-11.771,4.842-18.002,4.325c-6.069-0.523-12.978-3.629-16.62-7.793
	c-3.111-2.93-5.022-7.396-5.887-11.372h55.048c4.843,0,8.472-2.722,8.986-6.909c0.177-0.348,0.183-1.185,0.183-1.534v-0.838
	c-1.396-23.373-19.216-40.118-41.723-40.118v-0.14v0.057V349.797z M776.303,349.797c-5.19,0-9.166,4.158-9.166,9.181v68.188
	c0,5.024,3.976,9.21,9.174,9.21c4.535,0,8.302-3.279,9.209-7.43c0.348-0.699,0.348-1.187,0.348-1.744v-41.375
	c0-9.628,7.606-17.441,17.306-17.441c9.907,0,18.001,7.813,18.001,17.512v41.374c0,5.023,4.325,9.259,9.21,9.259
	c5.022,0,9-4.117,9-9.14V385.89c0-19.536-16.047-35.988-36.141-35.988c-6.698,0-13.117,2.094-18.351,5.373
	c-1.535-3.279-4.814-5.373-8.443-5.373h-0.139v-0.104H776.303z M571.574,351.123c-1.115-0.014-2.232,0.237-3.279,0.747
	c-4.834,2.093-7.095,7.102-5.023,11.777l28.049,67.162c0.173,0.518,0.348,1.032,0.696,1.201c0,0.181-0.014,0.174,0.16,0.174
	c0.35,0.35,0.698,0.857,0.873,1.206c0.174,0.209,0.167,0.209,0.349,0.209c0.336,0.559,0.696,0.699,1.048,1.048
	c0,0,0.159,0,0.159,0.21c0.696,0.349,1.033,0.697,1.549,0.905h0.349v0.211c0.53,0,0.865,0.194,1.381,0.348h0.349
	c0.697,0.188,1.214,0.194,1.562,0.194c0.517,0,1.048,0,1.731-0.208h0.35c0.333-0.14,0.865-0.35,1.381-0.35v-0.139h0.35
	c0.523-0.139,0.858-0.489,1.207-0.838c0-0.166,0.21-0.174,0.21-0.174c0.349-0.349,0.696-0.488,1.046-1.047c0,0,0.209,0,0.209-0.14
	c0.349-0.349,0.696-0.866,1.046-1.214c0,0,0.21,0,0.21-0.16c0.208-0.155,0.558-0.698,0.698-1.186l28.396-67.155
	c2.094-4.675-0.139-9.699-5.022-11.792c-4.466-2.093-9.63,0.35-11.583,5.024l-20.024,47.097l-19.885-47.097
	c-1.534-3.488-4.954-5.721-8.303-5.721l-0.208-0.139v-0.098L571.574,351.123z M698.864,366.235
	c15.071,1.186,23.932,11.373,25.676,18.35h-48.98c1.396-7.117,8.653-17.653,23.374-18.35H698.864L698.864,366.235z M497.435,368.258
	c6.07,0,12.001,2.428,16.116,7.096c4.188,4.327,6.77,10.57,6.77,17.848c0,7.073-2.582,13.325-6.77,17.805
	c-4.115,4.396-10.046,6.768-16.047,6.768c-6.209,0-12.069-2.372-16.045-6.696c-4.118-4.468-6.561-10.676-6.561-17.793
	c0-7.255,2.442-13.465,6.561-17.791c3.976-4.675,9.904-7.047,16.114-7.047v-0.174h-0.146L497.435,368.258z"/>
<path fill="#6161A0" d="M126.076,269.021C56.445,269.021,0,325.466,0,395.097s56.445,126.076,126.076,126.076
	c69.635,0,126.084-56.445,126.084-126.076S195.707,269.021,126.076,269.021z M174.899,339.351c9.284,0,18.584,3.539,25.662,10.608
	c14.147,14.155,14.147,37.178,0,51.333l-45.463,45.047l-11.033,11.033c-4.854,4.829-11.34,7.535-18.256,7.535h-0.167
	c-6.911,0-13.406-2.706-18.277-7.577l-10.783-10.783l-2.873-2.872l-42.132-42.091c-14.155-14.155-14.155-37.178,0-51.333
	c14.114-14.155,37.178-14.155,51.292,0l22.814,22.814l23.522-23.147c7.036-7.078,16.32-10.575,25.604-10.575l0.042,0.042
	l0.042-0.008L174.899,339.351z M174.899,350.066c-6.549,0-13.102,2.498-18.085,7.494l-26.329,25.896l-0.125-0.167l-4.755,4.746
	l-30.258-30.267c-9.971-9.992-26.2-9.992-36.167,0c-9.975,9.95-9.975,26.187,0,36.179l41.146,41.133
	c0.804-5.245,3.193-10.283,7.219-14.321l10.616-10.616l-36.945-36.928c-1.898-1.915-4.987-1.915-6.886,0
	c-0.916,0.916-1.416,2.124-1.416,3.414c0,1.332,0.5,2.54,1.416,3.456l30.042,30.059l-7.577,7.577L66.75,387.661
	c-2.935-2.915-4.555-6.828-4.555-10.991s1.582-8.077,4.538-10.991c6.079-6.078,15.945-6.078,22.024,0l36.928,36.929l36.928-36.929
	c6.079-6.078,15.945-6.078,22.024,0c2.914,2.956,4.538,6.87,4.538,11.033c0,4.18-1.624,8.077-4.58,11.033l-29.643,29.643
	l-7.577-7.577l29.643-29.643c0.916-0.916,1.416-2.136,1.416-3.443c0-1.333-0.5-2.54-1.416-3.456c-1.916-1.915-4.996-1.915-6.87,0
	l-36.924,36.861l10.616,10.616c4.039,4.039,6.428,9.076,7.231,14.322l41.841-41.466c9.95-9.95,9.958-26.187-0.012-36.137
	c-4.979-4.996-11.532-7.494-18.077-7.494l0.075,0.083V350.066L174.899,350.066z M125.73,417.803l-10.608,10.604
	c-5.887,5.911-5.891,15.487,0,21.357c2.839,2.872,6.632,4.413,10.687,4.413c0.916,0,1.832-0.084,2.748-0.25
	c2.831-0.541,5.537-1.915,7.744-4.122c5.87-5.87,5.87-15.445,0-21.357l-10.617-10.616h0.042v-0.033L125.73,417.803z"/>
</svg>
